<svg width="279" height="190" viewBox="0 0 279 190" fill="black" xmlns="http://www.w3.org/2000/svg">
<path d="M242.454 165.783C243.443 175.724 241.715 188.312 239.231 189.649C236.077 191.348 225.093 184.425 219.934 176.779C219.55 176.211 219.199 175.639 218.886 175.067L218.849 174.999L218.824 174.952C217.742 172.945 217.228 171.114 217.118 169.465C225.99 170.406 234.656 169.028 242.454 165.783Z" fill="#bd3162"/>
<path d="M210.959 168.44C211.609 168.588 212.264 168.725 212.925 168.85C212.981 168.86 213.038 168.87 213.095 168.88C213.113 171.353 213.786 174.034 215.302 176.85C216.119 178.368 217.143 179.854 218.297 181.273C216.608 185.398 214.781 188.39 213.442 188.725C210.815 189.383 205.063 184.165 201.062 177.83C204.742 175.158 208.077 172.004 210.959 168.44Z" fill="#bd3162"/>
<path d="M161.449 9.16212C171.247 3.13468 183.233 0.59365 195.429 2.89063C210.626 5.75288 222.787 15.4939 229.299 28.2861C232.474 28.2383 235.702 28.5066 238.943 29.1172C264.963 34.0179 282.084 59.0846 277.183 85.1045C275.755 92.6879 272.613 99.5157 268.234 105.263C270.176 112.155 270.599 119.59 269.183 127.104C264.283 153.124 239.217 170.244 213.197 165.345C211.788 165.079 210.406 164.754 209.052 164.373C207.13 166.959 204.961 169.333 202.586 171.464C191.826 181.378 176.68 186.261 161.197 183.345C145.674 180.421 133.319 170.32 126.917 157.122C118.977 160.11 110.143 161.03 101.197 159.345C89.7214 157.183 79.9758 151.098 73.0879 142.74C74.8449 141.773 76.6796 140.704 78.5498 139.56C84.4879 135.925 91.0309 131.38 97.0068 126.542C99.2587 124.719 101.453 122.838 103.516 120.93C107.216 117.865 110.458 114.29 113.145 110.329C113.748 109.478 114.308 108.618 114.815 107.753C121.428 111.176 129.405 111.5 136.692 107.338C139.74 105.597 141.938 103.315 142.974 100.389C143.99 97.5193 143.675 94.6293 142.922 92.0732C142.174 89.5359 140.893 86.9929 139.561 84.6113C138.875 83.3853 138.026 81.9498 137.196 80.5479L137.192 80.542C136.535 79.4327 135.892 78.3443 135.35 77.3965C132.627 72.6282 129.562 67.4898 125.58 64.4736C123.462 62.8695 120.954 61.7533 118.027 61.6338C117.871 61.6274 117.713 61.6237 117.557 61.6231C115.867 57.7875 113.719 54.2185 111.192 50.9775C121.35 30.3992 129.576 25.2012 133.001 24.2441C134.162 23.9196 135.322 23.9686 136.588 24.5352C137.923 25.133 139.568 26.4 141.386 28.835C144.584 33.119 146.103 38.3023 146.252 41.7529C139.015 40.4429 131.923 44.99 130.166 52.2305C128.343 59.7444 132.956 67.3136 140.47 69.1367C148.121 70.9929 156.483 70.6299 163.475 65.6641C170.305 60.8137 173.077 53.5115 173.925 47.3701C175.56 35.5142 171.142 21.8866 163.822 12.083C163.089 11.101 162.297 10.1227 161.449 9.16212Z" fill="#bd3162"/>
<path d="M95.5762 161.549C97.316 162.07 99.1001 162.506 100.925 162.85C108.055 164.193 115.125 164.007 121.793 162.525C118.5 170.552 109.671 180.818 106.552 180.818C103.405 180.818 98.0932 173.684 96.2256 166.86C95.7988 165.3 95.5518 163.757 95.5518 162.318C95.5518 162.055 95.5601 161.798 95.5762 161.549Z" fill="#bd3162"/>
<path d="M80.4238 154.141C83.8657 156.592 87.6404 158.644 91.6924 160.217C91.6 160.885 91.5518 161.585 91.5518 162.318C91.5518 164.344 91.9243 166.45 92.5361 168.506C88.3407 170.194 84.6508 171.028 83.3008 170.322C80.6411 168.932 79.2418 160.881 80.4238 154.141Z" fill="#bd3162"/>
<path d="M47.5322 130.224C48.6343 134.75 50.3379 138.523 52.7529 141.79C53.5435 142.859 54.4042 143.865 55.335 144.819C49.0316 145.25 42.9006 143.418 38.0244 139.845C38.2188 139.751 38.4123 139.654 38.6045 139.554C41.7686 137.91 44.6508 135.457 46.7227 131.805C47.0098 131.299 47.2798 130.772 47.5322 130.224Z" fill="#bd3162"/>
<path d="M44.0518 83.8184C44.8802 83.8184 45.5518 84.4899 45.5518 85.3184C45.5517 86.1468 44.8802 86.8184 44.0518 86.8184C43.2234 86.8183 42.5518 86.1467 42.5518 85.3184C42.5518 84.49 43.2234 83.8184 44.0518 83.8184Z" fill="#bd3162"/>
<path d="M80.0518 83.8184C80.8802 83.8184 81.5518 84.4899 81.5518 85.3184C81.5517 86.1468 80.8802 86.8184 80.0518 86.8184C79.2234 86.8183 78.5518 86.1467 78.5518 85.3184C78.5518 84.49 79.2234 83.8184 80.0518 83.8184Z" fill="#bd3162"/>
<path fill-rule="evenodd" clip-rule="evenodd" d="M65.9932 35.8096C68.7329 35.4927 71.445 35.4215 74.1065 35.5772C78.3544 35.8256 82.4748 36.6538 86.3789 37.9912C87.6493 38.4264 88.8975 38.9154 90.1191 39.4561C95.8327 41.9849 100.978 45.64 105.24 50.1729C106.675 51.6991 108.009 53.3253 109.232 55.041C110.838 57.2937 112.251 59.7017 113.443 62.2432C112.068 62.6557 110.689 63.2673 109.306 64.0566C108.528 64.5013 107.8 64.981 107.123 65.4922C102.384 69.0712 100.092 74.191 99.6738 79.5859C99.6638 79.712 99.6545 79.8385 99.6475 79.9649C99.5925 80.8499 99.5879 81.7419 99.6279 82.6367C99.6959 84.1281 99.8903 85.6277 100.197 87.1162C100.243 87.3397 100.292 87.5631 100.343 87.7861C101.11 91.1322 102.434 94.4093 104.145 97.4053C105.786 100.279 107.899 102.772 110.334 104.784C110.682 105.071 111.036 105.349 111.396 105.616L111.421 105.634C110.962 106.425 110.437 107.231 109.856 108.05L109.855 108.051C107.357 111.741 104.338 115.067 100.887 117.912C96.0901 122.357 90.4358 126.771 84.8281 130.673C79.8553 134.134 74.9194 137.194 70.6504 139.516C67.2411 141.37 64.2566 142.753 62.0195 143.497C61.4578 143.684 60.8944 143.851 60.3301 143.999C58.643 142.585 57.1984 141.075 55.9688 139.412C53.1634 135.617 51.3672 130.873 50.5107 124.313L59.3076 119.095C60.947 118.123 60.5026 115.678 58.6397 115.419L40.3799 112.886C39.6093 112.779 38.9482 113.094 38.5264 113.599C37.9288 114.314 37.8118 115.407 38.543 116.212L45.4072 123.769C44.9303 126.191 44.1769 128.184 43.2432 129.83C41.6033 132.721 39.3362 134.665 36.7607 136.004C36.0901 136.352 35.4006 136.66 34.6982 136.93C32.2194 134.34 30.2695 131.186 29.0703 127.579C26.4698 119.757 26.6906 106.544 30.0791 96.0137C29.9981 95.6808 29.9196 95.3457 29.8447 95.0088C29.4683 93.3159 29.1696 91.5731 28.9512 89.7842C28.9366 89.665 28.922 89.5455 28.9082 89.4258C27.8181 80.0017 29.1134 70.6258 32.4658 62.4004C33.392 60.1282 34.4747 57.9435 35.708 55.8701C38.7855 50.6959 42.7987 46.2134 47.6387 42.7822C52.8441 39.0921 59.0064 36.6178 65.9932 35.8096ZM43.5518 74.8184C38.0289 74.8184 33.5518 79.2955 33.5518 84.8184C33.5518 90.3412 38.029 94.8183 43.5518 94.8184C49.0746 94.8184 53.5517 90.3412 53.5518 84.8184C53.5518 79.2955 49.0746 74.8184 43.5518 74.8184ZM79.5518 74.8184C74.0289 74.8184 69.5518 79.2955 69.5518 84.8184C69.5518 90.3412 74.029 94.8183 79.5518 94.8184C85.0746 94.8184 89.5517 90.3412 89.5518 84.8184C89.5518 79.2955 85.0746 74.8184 79.5518 74.8184Z" fill="#bd3162"/>
<path d="M114.994 65.9619C116.498 65.568 117.883 65.5288 119.173 65.7861C124.325 66.8135 127.987 72.5692 131.877 79.3799C131.917 79.4498 131.957 79.5201 131.997 79.5899C132.597 80.6359 133.211 81.6729 133.819 82.6973C138.875 91.2216 143.423 98.8884 134.709 103.865C134.663 103.891 134.615 103.918 134.569 103.944C128.685 107.243 122.167 107.036 116.688 104.229C115.441 103.589 114.246 102.812 113.125 101.913C110.97 100.183 109.088 97.9947 107.619 95.4219C106.548 93.5466 105.661 91.5762 104.996 89.5762C104.951 89.443 104.908 89.3093 104.866 89.1758C104.347 87.5419 103.977 85.8907 103.776 84.2588C102.949 77.5342 104.988 71.1283 111.29 67.5293C112.604 66.7788 113.835 66.2653 114.994 65.9619Z" fill="#bd3162"/>
<path d="M11.2295 72.3594C16.8208 64.5961 21.9108 58.3581 28.8975 60.6035C25.1843 69.5922 23.7672 79.7929 24.9346 89.8857C25.2362 92.4931 25.6987 95.0188 26.3145 97.4522C19.961 100.973 12.2177 101.004 5.84083 96.4111C-2.30209 90.5463 3.02554 83.4 8.94923 75.4541L8.9502 75.4531C9.70942 74.4348 10.4778 73.403 11.2295 72.3594Z" fill="#bd3162"/>
<path fill-rule="evenodd" clip-rule="evenodd" d="M126.541 1.12891C141.598 -3.07822 153.661 5.15951 160.617 14.4756C167.438 23.6116 171.426 36.2064 169.962 46.8232C169.208 52.2921 166.793 58.4012 161.159 62.4024C155.409 66.4858 148.35 66.933 141.413 65.25C136.046 63.9478 132.751 58.5409 134.053 53.1738C135.355 47.8068 140.762 44.5113 146.129 45.8135C148.22 46.3209 149.216 46.1793 149.56 46.082C149.692 45.8858 149.978 45.3306 150.149 44.0908C150.76 39.6584 148.912 32.2292 144.591 26.4414C140.404 20.8335 136.018 19.2477 131.924 20.3916C126.943 21.7835 118.355 28.0075 108.376 47.6699C107.423 46.6435 106.428 45.6574 105.396 44.7149C105.178 44.5159 104.957 44.319 104.735 44.124C101.922 41.6447 98.8371 39.4793 95.5391 37.6748C94.3706 37.0355 93.1754 36.4413 91.9561 35.8945C102.409 16.2321 113.942 4.64984 126.541 1.12891ZM149.49 46.1709C149.49 46.1709 149.494 46.1686 149.497 46.165C149.499 46.1621 149.503 46.1579 149.508 46.1524C149.496 46.1638 149.49 46.1709 149.49 46.1709Z" fill="#bd3162"/>
<path d="M18.3604 12.4043C26.8001 12.0727 33.4533 18.0332 37.8809 23.9834C40.8383 27.958 43.6087 32.9604 46.1152 38.9404C39.7323 43.2512 34.6545 49.1832 31.0322 56.0488C28.0287 46.2846 24.7019 39.7746 21.8359 35.9229C21.3738 35.302 20.9435 34.7764 20.5498 34.334C19.8641 37.6082 19.6588 42.9773 20.8906 50.6504C21.766 56.1034 18.0546 61.234 12.6016 62.1094C7.14865 62.9846 2.01893 59.2732 1.14356 53.8203C-0.511078 43.513 -0.399758 34.4674 1.67384 27.4453C3.65035 20.7524 8.67288 12.7853 18.3604 12.4043Z" fill="#bd3162"/>
<path d="M110.776 4.99903C102.547 11.5208 95.0612 21.4504 88.2227 34.3965C84.2479 32.9832 80.0607 32.0581 75.7422 31.6846C82.4151 17.5881 95.5941 7.66753 110.776 4.99903Z" fill="#bd3162"/>
</svg>
