<svg width="289" height="289" viewBox="0 0 289 289" fill="none" xmlns="http://www.w3.org/2000/svg">
<path fill-rule="evenodd" clip-rule="evenodd" d="M8.79899 164.362C-2.13569 153.428 -2.13569 135.699 8.79899 124.765L124.764 8.79899C135.699 -2.13569 153.428 -2.13569 164.362 8.79899L280.328 124.765C291.263 135.699 291.263 153.428 280.328 164.362L164.362 280.328C153.428 291.263 135.699 291.263 124.764 280.328L8.79899 164.362ZM125.993 110.81C128.733 110.493 131.445 110.422 134.106 110.577C138.354 110.826 142.475 111.654 146.379 112.991C147.649 113.427 148.897 113.916 150.119 114.456C155.832 116.985 160.978 120.64 165.24 125.173C166.675 126.699 168.009 128.326 169.232 130.041C170.172 131.36 171.047 132.732 171.849 134.153C172.75 135.749 171.858 137.72 170.228 138.557C169.921 138.714 169.613 138.881 169.305 139.057C168.528 139.502 167.8 139.981 167.123 140.492C162.384 144.071 160.092 149.191 159.674 154.586C159.664 154.712 159.654 154.839 159.647 154.965C159.592 155.85 159.588 156.742 159.628 157.637C159.696 159.128 159.89 160.628 160.197 162.116C160.243 162.34 160.292 162.563 160.343 162.786C161.109 166.132 162.433 169.41 164.144 172.406C165.785 175.279 167.899 177.772 170.334 179.784C170.682 180.071 171.035 180.35 171.396 180.616C171.41 180.626 171.414 180.645 171.406 180.66C170.95 181.442 170.431 182.24 169.857 183.05L169.856 183.051L169.855 183.052C167.357 186.741 164.337 190.068 160.886 192.912C156.09 197.357 150.436 201.771 144.828 205.673C139.855 209.134 134.919 212.194 130.65 214.516C127.241 216.37 124.256 217.753 122.019 218.497C121.952 218.52 121.885 218.542 121.818 218.564C120.892 218.863 119.879 218.636 119.167 217.974C117.968 216.859 116.906 215.68 115.969 214.412C113.45 211.005 111.745 206.833 110.803 201.269C110.602 200.087 111.179 198.917 112.211 198.305L119.307 194.095C120.947 193.123 120.502 190.678 118.639 190.419L100.38 187.886C99.6091 187.779 98.948 188.094 98.5261 188.599C97.9285 189.314 97.8115 190.407 98.5427 191.212L104.393 197.652C105.031 198.355 105.311 199.321 105.071 200.239C104.606 202.013 103.981 203.53 103.243 204.83C101.603 207.721 99.336 209.665 96.7605 211.004C96.6819 211.045 96.603 211.085 96.5239 211.125C95.4431 211.667 94.1403 211.372 93.3769 210.434C91.5228 208.157 90.0472 205.518 89.0701 202.579C86.5356 194.956 86.681 182.212 89.8269 171.821C89.9872 171.291 90.0073 170.73 89.8851 170.19C89.8715 170.13 89.8579 170.069 89.8445 170.009C89.4681 168.316 89.1693 166.573 88.9509 164.784C88.9363 164.665 88.9218 164.546 88.908 164.426C87.8179 155.002 89.1132 145.626 92.4656 137.401C93.3917 135.128 94.4745 132.944 95.7078 130.87C98.7853 125.696 102.798 121.214 107.638 117.782C112.844 114.092 119.006 111.618 125.993 110.81ZM179.173 140.786C177.883 140.529 176.498 140.568 174.994 140.962C173.835 141.266 172.604 141.779 171.29 142.53C164.988 146.129 162.949 152.534 163.776 159.259C163.977 160.891 164.347 162.542 164.866 164.176C164.888 164.245 164.91 164.315 164.932 164.384C164.953 164.448 164.974 164.512 164.996 164.576C165.661 166.576 166.548 168.547 167.619 170.422C169.088 172.995 170.97 175.183 173.125 176.913C174.246 177.812 175.44 178.589 176.688 179.229C182.167 182.037 188.685 182.243 194.569 178.945L194.709 178.865C203.423 173.889 198.875 166.222 193.819 157.698C193.211 156.673 192.597 155.636 191.997 154.59L191.877 154.38C187.987 147.569 184.325 141.814 179.173 140.786ZM85.693 135.148C80.2762 135.384 75.9299 140.833 71.2293 147.36C70.4777 148.403 69.7095 149.435 68.9504 150.453L68.9495 150.454L68.9486 150.455C63.025 158.401 57.6979 165.547 65.8406 171.411C71.5368 175.514 78.3232 175.927 84.2354 173.459C85.4922 172.935 86.0733 171.534 85.794 170.201C85.4314 168.471 85.144 166.698 84.9343 164.886C83.8967 155.915 84.9009 146.859 87.7444 138.645C88.3176 136.989 87.4437 135.072 85.693 135.148ZM78.3601 87.4045C86.7998 87.073 93.453 93.0335 97.8806 98.9836C100.458 102.447 102.893 106.692 105.136 111.684C105.722 112.988 105.254 114.508 104.117 115.375C100.577 118.071 97.4827 121.288 94.8616 124.891C93.288 127.054 89.6333 126.682 88.6764 124.184C86.3564 118.128 83.9685 113.789 81.8357 110.923C81.3305 110.244 80.3252 110.512 80.2262 111.352C79.8369 114.659 79.8849 119.387 80.8904 125.651C81.7658 131.104 78.0543 136.234 72.6013 137.11C67.1484 137.985 62.0187 134.273 61.1433 128.821C59.4887 118.513 59.6 109.468 61.6736 102.446C63.6501 95.7526 68.6726 87.7856 78.3601 87.4045ZM112.753 216.79C110.65 213.945 109.086 210.717 107.989 206.941C107.826 206.378 107.012 206.295 106.722 206.805C104.651 210.457 101.768 212.91 98.6043 214.554C98.3432 214.69 98.3109 215.054 98.5525 215.222C102.286 217.814 106.707 219.412 111.355 219.793C112.919 219.921 113.686 218.052 112.753 216.79ZM220.617 89.4758C213.661 80.1598 201.598 71.922 186.541 76.1292C174.557 79.4783 163.537 90.121 153.494 108.074C152.646 109.589 153.304 111.49 154.84 112.3C155.074 112.423 155.307 112.548 155.539 112.675C158.837 114.48 161.922 116.645 164.735 119.124C164.957 119.319 165.177 119.516 165.395 119.715C166.899 121.089 169.356 120.74 170.332 118.952C179.472 102.208 187.271 96.692 191.924 95.3919C196.018 94.248 200.404 95.8338 204.591 101.442C208.911 107.229 210.76 114.659 210.149 119.091C210.096 119.48 210.031 119.801 209.963 120.065C209.786 120.752 209.178 121.197 208.469 121.174C207.917 121.155 207.155 121.063 206.129 120.814C200.762 119.512 195.355 122.807 194.052 128.174C192.75 133.541 196.046 138.948 201.413 140.25C208.35 141.933 215.409 141.486 221.159 137.403C226.793 133.401 229.208 127.292 229.962 121.823C231.426 111.207 227.438 98.6118 220.617 89.4758ZM209.505 121.156L209.508 121.153L209.5 121.16L209.496 121.164L209.497 121.165C209.498 121.163 209.501 121.16 209.505 121.156Z" fill="#bd3162"/>
<path fill-rule="evenodd" clip-rule="evenodd" d="M139.552 149.819C134.029 149.819 129.552 154.296 129.552 159.819C129.552 165.341 134.029 169.819 139.552 169.819C145.074 169.819 149.551 165.341 149.552 159.819C149.552 154.296 145.074 149.819 139.552 149.819ZM141.552 160.319C141.552 159.49 140.88 158.819 140.052 158.819C139.223 158.819 138.552 159.49 138.552 160.319C138.552 161.147 139.223 161.819 140.052 161.819C140.88 161.819 141.551 161.147 141.552 160.319Z" fill="#bd3162"/>
<path fill-rule="evenodd" clip-rule="evenodd" d="M103.552 149.819C98.0287 149.819 93.5515 154.296 93.5515 159.819C93.5516 165.341 98.0287 169.819 103.552 169.819C109.074 169.819 113.551 165.341 113.552 159.819C113.552 154.296 109.074 149.819 103.552 149.819ZM105.552 160.319C105.552 159.49 104.88 158.819 104.052 158.819C103.223 158.819 102.552 159.49 102.552 160.319C102.552 161.147 103.223 161.819 104.052 161.819C104.88 161.819 105.551 161.147 105.552 160.319Z" fill="#bd3162"/>
<path d="M104.052 158.819C104.88 158.819 105.552 159.49 105.552 160.319C105.551 161.147 104.88 161.819 104.052 161.819C103.223 161.819 102.552 161.147 102.552 160.319C102.552 159.49 103.223 158.819 104.052 158.819Z" fill="#D9D9D9"/>
<path d="M140.052 158.819C140.88 158.819 141.552 159.49 141.552 160.319C141.551 161.147 140.88 161.819 140.052 161.819C139.223 161.819 138.552 161.147 138.552 160.319C138.552 159.49 139.223 158.819 140.052 158.819Z" fill="#D9D9D9"/>
</svg>
